<svg xmlns="http://www.w3.org/2000/svg" version="1.1" xmlns:xlink="http://www.w3.org/1999/xlink" xmlns:svgjs="http://svgjs.dev/svgjs" viewBox="0 0 800 800"><rect width="100%" height="100%" fill="hsl(238, 24%, 5%)"></rect><g fill="hsl(308, 69%, 58%)"><rect width="462" height="4" x="19" y="721" rx="2" transform="rotate(45, 250, 723)" opacity="0.75"></rect><rect width="47" height="4" x="4.5" y="741" rx="2" transform="rotate(45, 28, 743)" opacity="0.54"></rect><rect width="69" height="4" x="240.5" y="274" rx="2" transform="rotate(45, 275, 276)" opacity="0.52"></rect><rect width="673" height="4" x="-128.5" y="99" rx="2" transform="rotate(45, 208, 101)" opacity="0.33"></rect><rect width="257" height="4" x="461.5" y="489" rx="2" transform="rotate(45, 590, 491)" opacity="0.10"></rect><rect width="194" height="4" x="383" y="462" rx="2" transform="rotate(45, 480, 464)" opacity="0.28"></rect><rect width="156" height="4" x="590" y="590" rx="2" transform="rotate(45, 668, 592)" opacity="0.64"></rect><rect width="133" height="4" x="393.5" y="53" rx="2" transform="rotate(45, 460, 55)" opacity="0.96"></rect><rect width="245" height="4" x="-31.5" y="751" rx="2" transform="rotate(45, 91, 753)" opacity="0.27"></rect><rect width="360" height="4" x="303" y="584" rx="2" transform="rotate(45, 483, 586)" opacity="0.98"></rect><rect width="225" height="4" x="-37.5" y="47" rx="2" transform="rotate(45, 75, 49)" opacity="0.91"></rect><rect width="121" height="4" x="686.5" y="496" rx="2" transform="rotate(45, 747, 498)" opacity="0.32"></rect><rect width="645" height="4" x="-63.5" y="420" rx="2" transform="rotate(45, 259, 422)" opacity="0.10"></rect><rect width="484" height="4" x="151" y="575" rx="2" transform="rotate(45, 393, 577)" opacity="0.99"></rect><rect width="429" height="4" x="-100.5" y="376" rx="2" transform="rotate(45, 114, 378)" opacity="0.93"></rect><rect width="554" height="4" x="287" y="627" rx="2" transform="rotate(45, 564, 629)" opacity="0.29"></rect><rect width="210" height="4" x="614" y="345" rx="2" transform="rotate(45, 719, 347)" opacity="0.40"></rect><rect width="180" height="4" x="216" y="534" rx="2" transform="rotate(45, 306, 536)" opacity="0.11"></rect><rect width="205" height="4" x="658.5" y="201" rx="2" transform="rotate(45, 761, 203)" opacity="0.33"></rect><rect width="375" height="4" x="436.5" y="216" rx="2" transform="rotate(45, 624, 218)" opacity="0.62"></rect><rect width="233" height="4" x="409.5" y="325" rx="2" transform="rotate(45, 526, 327)" opacity="0.76"></rect><rect width="262" height="4" x="34" y="738" rx="2" transform="rotate(45, 165, 740)" opacity="0.95"></rect><rect width="378" height="4" x="462" y="400" rx="2" transform="rotate(45, 651, 402)" opacity="0.94"></rect><rect width="801" height="4" x="-12.5" y="398" rx="2" transform="rotate(45, 388, 400)" opacity="0.71"></rect><rect width="254" height="4" x="42" y="262" rx="2" transform="rotate(45, 169, 264)" opacity="0.79"></rect><rect width="403" height="4" x="123.5" y="74" rx="2" transform="rotate(45, 325, 76)" opacity="0.77"></rect><rect width="49" height="4" x="233.5" y="620" rx="2" transform="rotate(45, 258, 622)" opacity="0.67"></rect><rect width="845" height="4" x="-366.5" y="472" rx="2" transform="rotate(45, 56, 474)" opacity="0.19"></rect><rect width="453" height="4" x="-159.5" y="627" rx="2" transform="rotate(45, 67, 629)" opacity="0.71"></rect><rect width="201" height="4" x="636.5" y="760" rx="2" transform="rotate(45, 737, 762)" opacity="0.54"></rect><rect width="435" height="4" x="535.5" y="659" rx="2" transform="rotate(45, 753, 661)" opacity="0.40"></rect><rect width="546" height="4" x="118" y="228" rx="2" transform="rotate(45, 391, 230)" opacity="0.71"></rect><rect width="337" height="4" x="498.5" y="48" rx="2" transform="rotate(45, 667, 50)" opacity="0.15"></rect><rect width="121" height="4" x="311.5" y="723" rx="2" transform="rotate(45, 372, 725)" opacity="0.10"></rect><rect width="126" height="4" x="11" y="153" rx="2" transform="rotate(45, 74, 155)" opacity="0.68"></rect><rect width="336" height="4" x="583" y="279" rx="2" transform="rotate(45, 751, 281)" opacity="0.89"></rect><rect width="473" height="4" x="285.5" y="146" rx="2" transform="rotate(45, 522, 148)" opacity="0.61"></rect><rect width="83" height="4" x="124.5" y="543" rx="2" transform="rotate(45, 166, 545)" opacity="0.22"></rect><rect width="553" height="4" x="-225.5" y="266" rx="2" transform="rotate(45, 51, 268)" opacity="0.65"></rect><rect width="568" height="4" x="454" y="120" rx="2" transform="rotate(45, 738, 122)" opacity="0.21"></rect><rect width="733" height="4" x="263.5" y="729" rx="2" transform="rotate(45, 630, 731)" opacity="0.17"></rect><rect width="670" height="4" x="165" y="734" rx="2" transform="rotate(45, 500, 736)" opacity="0.42"></rect></g></svg>